<svg width="24" height="22" viewBox="0 0 24 22" fill="none" xmlns="http://www.w3.org/2000/svg">
<g filter="url(#filter0_d_158_672)">
<path d="M19.1528 3.42737C17.6481 1.78674 15.4262 0.919556 12.7262 0.919556C10.3356 0.919556 8.0059 1.84768 6.17309 3.53518C4.34027 5.22268 3.21527 7.46331 3.00434 9.85393C2.7934 12.2774 3.5434 14.5555 5.11371 16.2711C6.67934 17.9774 8.86371 18.9196 11.2731 18.9196C12.7965 18.9196 13.7856 18.8071 15.2809 18.1836C15.6606 18.0242 15.8434 17.5836 15.684 17.2039C15.5246 16.8242 15.084 16.6414 14.7043 16.8008C13.4293 17.3352 12.6512 17.4242 11.2778 17.4242C9.29496 17.4242 7.49965 16.6555 6.22465 15.2633C4.94027 13.8617 4.32621 11.9867 4.50434 9.98987C4.86996 5.81799 8.56371 2.42424 12.7356 2.42424C15.0043 2.42424 16.8418 3.12268 18.0559 4.44456C19.209 5.70549 19.7246 7.44456 19.5465 9.46955C19.3918 11.2227 18.7122 12.0852 18.1731 12.4977C17.6575 12.8914 17.1418 12.9758 16.8606 12.9242C16.0309 12.7789 15.5996 11.9633 15.7075 10.7539L16.1059 6.23987C16.1434 5.82737 15.8387 5.46174 15.4262 5.42893C15.0137 5.39143 14.6481 5.69612 14.6153 6.10862L14.5778 6.53518C13.8653 5.81799 12.9184 5.42424 11.9012 5.42424C10.7856 5.42424 9.72152 5.89768 8.90121 6.75549C8.11371 7.57581 7.62621 8.68206 7.52309 9.85862C7.4059 11.1664 7.79496 12.4039 8.57777 13.2617C9.26215 14.0117 10.209 14.4242 11.245 14.4242C12.3887 14.4242 13.4668 14.0024 14.2778 13.243C14.3903 13.1399 14.4981 13.0274 14.5965 12.9102C15.0606 13.8055 15.8575 14.2696 16.6075 14.4055C17.3996 14.5461 18.3278 14.2789 19.0965 13.693C19.8793 13.093 20.8496 11.8977 21.0512 9.60549C21.2434 7.17268 20.5778 4.98362 19.1528 3.42737ZM11.2262 12.9196C10.6075 12.9196 10.0684 12.6852 9.66527 12.2446C9.16371 11.6961 8.91996 10.8711 8.99965 9.98518C9.14965 8.26487 10.42 6.91956 11.8871 6.91956C12.534 6.91956 13.1293 7.18206 13.57 7.66018C14.0809 8.21799 14.3293 9.01487 14.2543 9.85393C14.0668 11.968 12.595 12.9196 11.2262 12.9196Z" fill="#B52184"/>
</g>
<defs>
<filter id="filter0_d_158_672" x="-1.03058" y="0.919556" width="26.1142" height="26" filterUnits="userSpaceOnUse" color-interpolation-filters="sRGB">
<feFlood flood-opacity="0" result="BackgroundImageFix"/>
<feColorMatrix in="SourceAlpha" type="matrix" values="0 0 0 0 0 0 0 0 0 0 0 0 0 0 0 0 0 0 127 0" result="hardAlpha"/>
<feOffset dy="4"/>
<feGaussianBlur stdDeviation="2"/>
<feComposite in2="hardAlpha" operator="out"/>
<feColorMatrix type="matrix" values="0 0 0 0 0 0 0 0 0 0 0 0 0 0 0 0 0 0 0.25 0"/>
<feBlend mode="normal" in2="BackgroundImageFix" result="effect1_dropShadow_158_672"/>
<feBlend mode="normal" in="SourceGraphic" in2="effect1_dropShadow_158_672" result="shape"/>
</filter>
</defs>
</svg>
